PathFileType	4	(X/Y/Z)	C:/Users/opensim2020/Desktop/walking_exp_matlab/subject03_walking04_straight_03.trc	
DataRate	CameraRate	NumFrames	NumMarkers	Units	OrigDataRate	OrigDataStartFrame	OrigNumFrames	
100.00	100.00	8	51	mm	100.00	2341	256	
Frame#	Time	LFHD			RFHD			LBHD			RBHD			C7			T10			CLAV			STRN			RBAK			LSHO			LUPA			LELB			LFRM			LWRA			LWRB			LFIN			RSHO			RUPA			RELB			RFRM			RWRA			RWRB			RFIN			LASI			RASI			LPSI			RPSI			LTHI			LKNE			LTIB			LANK			LHEE			LTOE			RTHI			RKNE			RTIB			RANK			RHEE			RTOE			*39			*40			*41			*42			*43			*44			*45			*46			*47			*48			*49			*50			
		X1	Y1	Z1	X2	Y2	Z2	X3	Y3	Z3	X4	Y4	Z4	X5	Y5	Z5	X6	Y6	Z6	X7	Y7	Z7	X8	Y8	Z8	X9	Y9	Z9	X10	Y10	Z10	X11	Y11	Z11	X12	Y12	Z12	X13	Y13	Z13	X14	Y14	Z14	X15	Y15	Z15	X16	Y16	Z16	X17	Y17	Z17	X18	Y18	Z18	X19	Y19	Z19	X20	Y20	Z20	X21	Y21	Z21	X22	Y22	Z22	X23	Y23	Z23	X24	Y24	Z24	X25	Y25	Z25	X26	Y26	Z26	X27	Y27	Z27	X28	Y28	Z28	X29	Y29	Z29	X30	Y30	Z30	X31	Y31	Z31	X32	Y32	Z32	X33	Y33	Z33	X34	Y34	Z34	X35	Y35	Z35	X36	Y36	Z36	X37	Y37	Z37	X38	Y38	Z38	X39	Y39	Z39	X40	Y40	Z40	X41	Y41	Z41	X42	Y42	Z42	X43	Y43	Z43	X44	Y44	Z44	X45	Y45	Z45	X46	Y46	Z46	X47	Y47	Z47	X48	Y48	Z48	X49	Y49	Z49	X50	Y50	Z50	X51	Y51	Z51	

97	0.960	-1259.06140	-299.78897	1622.49939	-1127.59753	-321.29688	1631.28760	-1271.39270	-418.40170	1558.25391	-1141.60657	-434.99661	1567.37097	-1208.37939	-442.35834	1413.86389	-1205.85620	-478.44104	1102.67432	-1194.20679	-320.90521	1337.48376	-1192.21143	-278.62143	1171.62671	-1108.97192	-502.80640	1244.45068	-1354.30359	-350.07996	1371.67224	-1420.38257	-363.17639	1172.46057	-1430.84009	-364.89993	1049.58276	-1429.84290	-348.12979	919.74756	-1399.32349	-340.10849	799.52850	-1450.81287	-361.51242	807.38470	-1437.70898	-363.18689	721.34332	-1040.50037	-375.89719	1366.13391	-968.62805	-361.88641	1144.26379	-957.95764	-333.39624	1034.97998	-963.19489	-289.31659	905.42065	-1005.06805	-239.49608	821.20105	-961.34735	-268.52756	807.26196	-976.44830	-231.33122	743.09167	-1307.50940	-299.16000	941.24628	-1070.91797	-325.08087	931.06927	-1275.70447	-465.61551	965.78925	-1126.24268	-479.33411	964.55023	-1352.32312	-336.35519	640.12823	-1304.70801	-310.67966	464.77341	-1303.98706	-341.61502	271.98328	-1257.33057	-338.60480	63.42465	-1223.47339	-376.89670	29.07859	-1229.39392	-184.84114	29.03332	-1031.23157	-390.12988	631.18866	-1050.75281	-376.28241	450.94833	-1051.86694	-523.35864	327.06949	-1102.14441	-687.73547	189.43652	-1157.89465	-730.04724	212.24881	-1130.60352	-656.70593	49.48082																																				 
98	0.970	-1259.59119	-290.15131	1622.78015	-1128.17151	-311.84415	1631.81763	-1271.99634	-408.84070	1558.85254	-1142.26599	-425.65509	1568.21472	-1209.15588	-433.16339	1414.37781	-1207.02051	-469.06668	1102.86853	-1194.49548	-312.02020	1337.92212	-1192.41260	-269.46310	1172.10217	-1110.72583	-494.33182	1244.37341	-1354.66260	-340.36060	1371.73828	-1421.04041	-351.03134	1172.44983	-1431.44287	-351.24597	1049.51404	-1430.17041	-332.72018	920.08502	-1399.68079	-323.00485	800.10156	-1451.39844	-344.14215	807.49573	-1438.17310	-344.39874	721.49188	-1040.83423	-367.60291	1366.08484	-969.29901	-354.61508	1143.90552	-958.55121	-326.99332	1034.30432	-963.22339	-284.91974	904.00415	-1004.41327	-236.28447	818.71680	-960.92230	-265.82260	805.52478	-975.66473	-229.81807	740.66766	-1307.94592	-289.77042	941.21869	-1071.02588	-316.18365	931.49438	-1276.48572	-456.62061	966.01184	-1127.07178	-470.33432	964.23590	-1352.71472	-329.03912	640.38293	-1305.33643	-305.81281	464.75534	-1304.29712	-338.65311	272.14917	-1257.36377	-338.35995	63.53827	-1223.25281	-377.20514	29.40069	-1229.38025	-184.73097	28.91326	-1031.74109	-376.46967	631.57324	-1050.48914	-357.18536	451.66547	-1052.41650	-504.73041	329.66141	-1102.32935	-670.72681	194.49332	-1158.56775	-713.42957	215.23076	-1126.50061	-637.96057	53.87488																																				 
99	0.980	-1259.86389	-280.54398	1622.98425	-1128.67590	-302.42651	1632.12402	-1272.53625	-399.34851	1559.42236	-1142.86609	-416.38989	1568.92175	-1209.82520	-424.08270	1414.98425	-1208.04126	-459.87418	1103.16162	-1194.71094	-303.16660	1338.32056	-1192.78040	-260.44827	1172.46594	-1112.57605	-485.98386	1244.28601	-1355.10474	-330.76309	1371.77295	-1421.56921	-338.91754	1172.49414	-1432.39014	-337.39014	1049.67358	-1430.78101	-316.99350	920.37146	-1399.97876	-305.80612	800.67456	-1451.74451	-326.61462	807.61169	-1438.69409	-325.04095	721.83582	-1041.10962	-359.49570	1366.03967	-970.01642	-347.34003	1143.47656	-959.18860	-320.49802	1033.57764	-963.23041	-280.52509	902.57831	-1003.71698	-233.05762	816.33325	-960.41449	-263.14709	803.77484	-974.80811	-228.34958	738.07526	-1308.43677	-280.56335	941.49921	-1071.33948	-307.20236	931.99542	-1276.83936	-447.70367	966.05750	-1127.65210	-461.30154	964.02484	-1352.99194	-321.20715	640.78485	-1305.57983	-300.86893	464.84091	-1304.44470	-335.75916	272.34106	-1257.34778	-338.13904	63.64864	-1222.78955	-377.32742	29.42521	-1229.33325	-184.56984	28.84790	-1032.06738	-362.53720	632.23334	-1050.26074	-338.17450	452.85202	-1053.03564	-486.06833	332.47122	-1102.22388	-653.07953	198.56789	-1159.51465	-695.85938	217.18156	-1121.96692	-617.66791	57.77679																																				 
100	0.990	-1260.13586	-270.94159	1623.28467	-1129.00903	-293.16525	1632.41089	-1272.98962	-389.88608	1559.96570	-1143.38123	-407.14664	1569.52319	-1210.49890	-415.07483	1415.46777	-1208.77258	-450.93808	1103.58789	-1194.94360	-294.40393	1338.71387	-1192.83630	-251.59846	1172.92236	-1114.40051	-477.77197	1244.21143	-1355.41052	-321.33163	1371.80090	-1422.07202	-326.90240	1172.54834	-1432.87439	-323.54465	1049.66895	-1431.25110	-301.14429	920.73187	-1400.19263	-288.42233	801.47089	-1452.10876	-308.83264	807.93890	-1439.23572	-305.15399	722.35089	-1041.33276	-351.45697	1365.90259	-970.80310	-340.07330	1143.02979	-959.78027	-313.89371	1032.89050	-963.14716	-276.12039	901.16779	-1003.09680	-229.98155	813.95569	-959.79620	-260.46649	802.09796	-974.06799	-226.83662	735.75793	-1309.07739	-271.70737	941.93665	-1071.82825	-297.96335	932.60052	-1277.04309	-438.98566	966.45892	-1128.01074	-452.26212	964.06549	-1352.52136	-313.33517	641.03381	-1305.59741	-296.02966	464.33328	-1304.38501	-332.96207	272.40869	-1257.19983	-337.85638	63.87341	-1222.66089	-377.26160	29.56767	-1229.24438	-184.46138	28.72552	-1032.22400	-348.18814	633.04498	-1050.10876	-319.15448	454.49243	-1053.41504	-467.17062	335.00134	-1102.01428	-634.28699	201.31206	-1160.24768	-677.45520	217.99004	-1118.03101	-596.20575	60.84646																																				 
101	1.000	-1260.29810	-261.34784	1623.58289	-1129.12939	-283.79626	1632.70569	-1273.40149	-380.44547	1560.52686	-1143.75891	-397.92426	1570.08948	-1211.02771	-406.25943	1415.95142	-1209.34009	-442.17145	1104.02881	-1195.18726	-285.74240	1339.05420	-1192.85486	-242.55011	1173.68384	-1116.13647	-469.68158	1244.19739	-1355.75525	-312.05194	1371.94983	-1422.51599	-314.91129	1172.71094	-1433.47131	-309.65131	1049.92249	-1431.31494	-285.31396	921.44849	-1400.24951	-270.97107	802.42261	-1452.39185	-290.80984	808.50006	-1439.72852	-284.69336	723.31293	-1041.52087	-343.62820	1365.82031	-971.58722	-332.92566	1142.62341	-960.53748	-307.63379	1032.13184	-963.03320	-271.79626	899.92877	-1002.35638	-227.05948	811.69946	-959.11487	-257.88147	800.62006	-972.84546	-225.19762	733.64972	-1309.87598	-262.96863	942.40308	-1072.40759	-289.15094	933.24109	-1277.36902	-429.78012	966.35486	-1128.21106	-443.22516	964.31378	-1351.30750	-304.95822	641.43762	-1304.96118	-290.29761	464.94968	-1304.22009	-330.28610	272.51828	-1256.89795	-337.59760	64.07800	-1222.75769	-377.12833	29.90734	-1229.16809	-184.34071	28.67492	-1032.58533	-333.42984	633.93018	-1050.05847	-300.30856	456.31131	-1053.69263	-447.94510	337.02151	-1101.84448	-614.68140	202.92001	-1160.72656	-658.41217	217.67847	-1114.50537	-573.50201	63.34393																																				 
102	1.010	-1260.37866	-251.81117	1623.78931	-1129.27246	-274.51602	1632.90820	-1273.70752	-371.06540	1561.05823	-1144.13269	-388.73602	1570.57190	-1211.60120	-397.52438	1416.29236	-1209.85535	-433.37625	1104.37256	-1195.36011	-277.12454	1339.42639	-1193.32227	-234.00449	1173.95837	-1117.69031	-461.51437	1244.23169	-1355.99182	-302.81299	1372.24072	-1423.06152	-302.94403	1173.10583	-1433.93298	-295.73026	1050.43323	-1431.55103	-269.34940	922.33026	-1400.14917	-253.46017	803.73193	-1452.53943	-272.71487	809.31860	-1440.23438	-263.96494	724.60846	-1041.74011	-335.82013	1365.74207	-972.30994	-325.93100	1142.31213	-961.12537	-301.27792	1031.64502	-962.90436	-267.52747	898.82941	-1001.54761	-224.25717	809.65149	-958.33984	-255.29381	799.33081	-971.45160	-223.71896	731.87958	-1310.72314	-254.35307	942.78595	-1073.33044	-280.33154	934.04102	-1277.39099	-420.93134	966.59052	-1128.31689	-434.20718	964.77271	-1350.11023	-296.52805	641.41693	-1304.29333	-285.06039	464.68588	-1303.89001	-327.61536	272.63300	-1256.47681	-337.45029	64.10434	-1222.24829	-377.17603	30.11857	-1228.99695	-184.14709	28.57179	-1032.66577	-318.58789	634.92334	-1050.08496	-281.68109	458.24640	-1053.87952	-428.51563	338.52078	-1102.09998	-594.35858	203.30307	-1160.94360	-638.82599	216.32974	-1111.64539	-549.77277	65.06970																																				 
103	1.020	-1260.35181	-242.27261	1623.91968	-1129.25916	-265.16528	1633.04297	-1273.94727	-361.73074	1561.56104	-1144.33887	-379.58844	1571.03503	-1212.16809	-388.84732	1416.69226	-1210.30640	-424.78619	1104.76135	-1195.60229	-268.58490	1339.77319	-1193.64160	-225.45566	1174.31909	-1118.93726	-453.33582	1244.35876	-1356.26709	-293.62622	1372.58618	-1423.29126	-291.27011	1173.55884	-1434.38940	-281.66873	1051.27246	-1431.55811	-253.44716	923.50903	-1400.10010	-235.74806	805.33881	-1452.58032	-254.48352	810.52551	-1440.63354	-242.85025	726.47229	-1041.95459	-328.14709	1365.85095	-972.96674	-319.13455	1142.13696	-961.67865	-295.00681	1031.30640	-962.72528	-263.28580	897.98047	-1000.76117	-221.47493	807.85034	-957.50806	-252.74231	798.31396	-969.98950	-222.02725	730.46161	-1311.48230	-245.91901	942.87610	-1074.10388	-271.24625	934.93903	-1277.49084	-412.08945	966.70941	-1128.42773	-425.14008	965.28308	-1349.07288	-288.67465	641.09540	-1303.69666	-280.01489	464.35434	-1303.59924	-324.92572	272.75873	-1256.14026	-336.99689	64.39207	-1221.98572	-377.12265	30.27818	-1228.90063	-183.96126	28.48939	-1032.51990	-303.78012	635.93805	-1050.34497	-263.21786	460.22263	-1054.11963	-408.89316	339.40356	-1101.86792	-573.52539	202.59216	-1160.90869	-618.61102	213.85020	-1109.27319	-524.78119	66.03020																																				 
104	1.030	-1260.20947	-232.80847	1624.02649	-1129.20105	-255.93863	1633.00354	-1274.11853	-352.41214	1562.07764	-1144.59290	-370.47562	1571.43274	-1212.71606	-380.24356	1416.97192	-1210.75830	-416.21124	1105.05164	-1195.74121	-260.07291	1340.01624	-1193.98792	-216.89117	1174.63452	-1119.91077	-445.16370	1244.58423	-1356.43701	-284.55399	1373.02222	-1423.57275	-279.73996	1174.34436	-1434.52551	-267.90244	1052.12891	-1431.46423	-237.43143	924.99097	-1399.71057	-218.24046	807.30353	-1452.56116	-236.13153	812.09924	-1440.95447	-221.57219	728.84894	-1042.25452	-320.38916	1365.94336	-973.55920	-312.62875	1142.04810	-962.16321	-288.86566	1031.12378	-962.48981	-259.18912	897.31213	-999.88641	-218.67265	806.29956	-956.61426	-250.17822	797.56744	-968.43030	-220.25520	729.18567	-1312.38794	-237.25906	943.15118	-1074.65198	-261.43848	936.29395	-1277.64258	-403.37646	966.84302	-1128.50061	-416.19894	965.88019	-1348.70386	-280.94049	640.96399	-1303.16553	-275.20160	464.06903	-1303.34753	-322.23431	272.86957	-1255.93811	-336.69675	64.61330	-1221.77246	-377.01523	30.63131	-1228.79871	-183.79092	28.43971	-1032.82092	-288.49390	637.03247	-1050.76428	-244.96405	462.25095	-1054.52625	-388.93692	339.68958	-1101.52722	-551.69104	200.86794	-1160.75098	-597.86908	210.33000	-1107.79456	-498.85880	66.23232																																				 
